<?xml version="1.0" encoding="UTF-8" standalone="no"?>
<svg
   xmlns:dc="http://purl.org/dc/elements/1.1/"
   xmlns:cc="http://creativecommons.org/ns#"
   xmlns:rdf="http://www.w3.org/1999/02/22-rdf-syntax-ns#"
   xmlns:svg="http://www.w3.org/2000/svg"
   xmlns="http://www.w3.org/2000/svg"
   style="font-style:normal;font-weight:normal;font-size:12px;font-family:Dialog;color-interpolation:auto;fill:#000000;fill-opacity:1;stroke:#000000;stroke-width:1;stroke-linecap:square;stroke-linejoin:miter;stroke-miterlimit:10;stroke-dasharray:none;stroke-dashoffset:0;stroke-opacity:1;color-rendering:auto;image-rendering:auto;shape-rendering:auto;text-rendering:auto"
   version="1.1"
   viewBox="0 0 598.16772 300.38785"
   id="svg2"
   font-size="12px"
   font-style="normal"
   height="300.38785"
   font-weight="normal"
   stroke-miterlimit="10"
   width="598.16772">
  <metadata
     id="metadata112">
    <rdf:RDF>
      <cc:Work
         rdf:about="">
        <dc:format>image/svg+xml</dc:format>
        <dc:type
           rdf:resource="http://purl.org/dc/dcmitype/StillImage" />
        <dc:title></dc:title>
      </cc:Work>
    </rdf:RDF>
  </metadata>
  <!--Generated by ySVG 2.5-->
  <defs
     id="genericDefs">
    <defs
       id="defs1">
      <clipPath
         clipPathUnits="userSpaceOnUse"
         id="clipPath1">
        <path
           d="M 0,0 H 603 V 301 H 0 Z"
           id="path9" />
      </clipPath>
      <clipPath
         clipPathUnits="userSpaceOnUse"
         id="clipPath2">
        <path
           d="M 127,163 H 730 V 464 H 127 Z"
           id="path12" />
      </clipPath>
    </defs>
    <clipPath
       clipPathUnits="userSpaceOnUse"
       id="clipPath2-1">
      <path
         d="M 127,163 H 730 V 464 H 127 Z"
         id="path12-7" />
    </clipPath>
    <clipPath
       clipPathUnits="userSpaceOnUse"
       id="clipPath3203">
      <path
         d="M 127,163 H 730 V 464 H 127 Z"
         id="path3205" />
    </clipPath>
    <clipPath
       clipPathUnits="userSpaceOnUse"
       id="clipPath2-9">
      <path
         d="M 127,163 H 730 V 464 H 127 Z"
         id="path12-4" />
    </clipPath>
    <clipPath
       clipPathUnits="userSpaceOnUse"
       id="clipPath3238">
      <path
         d="M 127,163 H 730 V 464 H 127 Z"
         id="path3240" />
    </clipPath>
  </defs>
  <g
     transform="translate(-0.33224492,4.0293185)"
     class="g-majprog-iii"
     id="g4054">
    <rect
       transform="translate(-127,-163)"
       x="142"
       width="97"
       height="33"
       y="299"
       clip-path="url(#clipPath2)"
       id="rect20"
       style="fill:#ffffff;stroke-linecap:butt;stroke-miterlimit:1.45000005;fill-opacity:1" />
    <text
       transform="translate(-127,-163)"
       x="189.70023"
       xml:space="preserve"
       y="320.2139"
       clip-path="url(#clipPath2)"
       id="txt-majprog-iii"
       style="line-height:0%;font-family:sans-serif;stroke:none"><tspan
         id="tspan3057"
         style="text-align:center;text-anchor:middle">iii</tspan></text>
  </g>
  <g
     transform="translate(-0.33224492,4.0293185)"
     class="g-majprog-vi"
     id="g4058">
    <rect
       transform="translate(-127,-163)"
       x="293"
       width="97"
       height="33"
       y="299"
       clip-path="url(#clipPath2)"
       id="rect24"
       style="fill:#ffffff;stroke-linecap:butt;stroke-miterlimit:1.45000005;fill-opacity:1" />
    <text
       transform="translate(-127,-163)"
       x="341.0166"
       xml:space="preserve"
       y="320.2139"
       clip-path="url(#clipPath2)"
       id="txt-majprog-vi"
       style="line-height:0%;font-family:sans-serif;stroke:none"><tspan
         id="tspan3059"
         style="text-align:center;text-anchor:middle">vi</tspan></text>
  </g>
  <g
     transform="translate(-0.33224492,4.0293185)"
     class="g-majprog-iv"
     id="g4062">
    <rect
       transform="translate(-127,-163)"
       x="380"
       width="97"
       height="33"
       y="216"
       clip-path="url(#clipPath2)"
       id="rect28"
       style="fill:#ffffff;stroke-linecap:butt;stroke-miterlimit:1.45000005;fill-opacity:1" />
    <text
       transform="translate(-127,-163)"
       x="427.89066"
       xml:space="preserve"
       y="237.2139"
       clip-path="url(#clipPath2)"
       id="txt-majprog-iv"
       style="line-height:0%;font-family:sans-serif;stroke:none"><tspan
         id="tspan3053"
         style="text-align:center;text-anchor:middle">IV</tspan></text>
  </g>
  <g
     transform="translate(-0.33224492,4.0293185)"
     class="g-majprog-ii"
     id="g4066">
    <rect
       transform="translate(-127,-163)"
       x="380"
       width="97"
       height="33"
       y="382"
       clip-path="url(#clipPath2)"
       id="rect32"
       style="fill:#ffffff;stroke-linecap:butt;stroke-miterlimit:1.45000005;fill-opacity:1" />
    <text
       transform="translate(-127,-163)"
       x="427.6973"
       xml:space="preserve"
       y="403.2139"
       clip-path="url(#clipPath2)"
       id="txt-majprog-ii"
       style="line-height:0%;font-family:sans-serif;stroke:none"><tspan
         id="tspan3061"
         style="text-align:center;text-anchor:middle">ii</tspan></text>
  </g>
  <g
     transform="translate(-0.33224492,4.0293185)"
     class="g-majprog-viidim"
     id="g4070">
    <rect
       transform="translate(-127,-163)"
       x="539"
       width="97"
       height="33"
       y="216"
       clip-path="url(#clipPath2)"
       id="rect36"
       style="fill:#ffffff;stroke-linecap:butt;stroke-miterlimit:1.45000005;fill-opacity:1" />
    <text
       transform="translate(-127,-163)"
       x="587.0459"
       xml:space="preserve"
       y="237.2139"
       clip-path="url(#clipPath2)"
       id="txt-majprog-viidim"
       style="line-height:0%;font-family:sans-serif;stroke:none"><tspan
         id="tspan3051"
         style="text-align:center;text-anchor:middle">vii dim</tspan></text>
  </g>
  <g
     transform="translate(-0.33224492,4.0293185)"
     class="g-majprog-v"
     id="g4074">
    <rect
       transform="translate(-127,-163)"
       x="539"
       width="97"
       height="33"
       y="382"
       clip-path="url(#clipPath2)"
       id="rect40"
       style="fill:#ffffff;stroke-linecap:butt;stroke-miterlimit:1.45000005;fill-opacity:1" />
    <text
       transform="translate(-127,-163)"
       x="587.4267"
       xml:space="preserve"
       y="403.2139"
       clip-path="url(#clipPath2)"
       id="txt-majprog-v"
       style="line-height:0%;font-family:sans-serif;stroke:none"><tspan
         id="tspan3063"
         style="text-align:center;text-anchor:middle">V</tspan></text>
  </g>
  <g
     transform="translate(0,-41.354721)"
     class="g-majprog-i"
     id="g79">
    <rect
       transform="translate(-127.33224,-158.97068)"
       x="142"
       width="97"
       height="33"
       y="216"
       clip-path="url(#clipPath2)"
       id="rect44"
       style="fill:#ffffff;stroke:#d81c52;stroke-width:2;stroke-linecap:butt;stroke-miterlimit:1.45000005;stroke-dasharray:none;stroke-opacity:1;fill-opacity:1" />
    <text
       transform="translate(-127.33225,-158.97068)"
       x="189.40135"
       xml:space="preserve"
       y="237.2139"
       clip-path="url(#clipPath2)"
       id="text4049"
       style="line-height:0%;font-family:sans-serif;stroke:none"><tspan
         id="tspan3055"
         style="text-align:center;text-anchor:middle">I</tspan></text>
  </g>
  <g
     transform="translate(-0.33224492,4.0293185)"
     class="g-majprog-i"
     id="g4078">
    <rect
       transform="translate(-127,-163)"
       x="618"
       width="97"
       height="33"
       y="299"
       clip-path="url(#clipPath2)"
       id="rect48"
       style="fill:#ffffff;stroke-linecap:butt;stroke-miterlimit:1.45000005;fill-opacity:1" />
    <text
       transform="translate(-127,-163)"
       x="665.40137"
       xml:space="preserve"
       y="320.2139"
       clip-path="url(#clipPath2)"
       id="txt-majprog-i"
       style="line-height:0%;font-family:sans-serif;stroke:none"><tspan
         id="tspan3065"
         style="text-align:center;text-anchor:middle">I</tspan></text>
  </g>
  <path
     style="fill:none;stroke-linecap:butt;stroke-miterlimit:1.45000005;stroke-dasharray:6, 2"
     id="path52"
     clip-path="url(#clipPath2)"
     d="m 239,315.5 h 46"
     transform="translate(-127.33225,-158.97068)" />
  <path
     style="stroke:none"
     id="path54"
     clip-path="url(#clipPath2)"
     d="m 293,315.5 -12,-5 3,5 -3,5 z"
     transform="translate(-127.33225,-158.97068)" />
  <path
     style="fill:none;stroke-linecap:butt;stroke-miterlimit:1.45000005"
     id="path56"
     clip-path="url(#clipPath2)"
     d="m 358.7952,299 46.6213,-44.4778"
     transform="translate(-127.33225,-158.97068)" />
  <path
     style="stroke:none"
     id="path58"
     clip-path="url(#clipPath2)"
     d="m 411.2048,249 -12.1339,4.6656 5.622,1.5469 1.2808,5.6886 z"
     transform="translate(-127.33225,-158.97068)" />
  <path
     style="fill:none;stroke-linecap:butt;stroke-miterlimit:1.45000005"
     id="path60"
     clip-path="url(#clipPath2)"
     d="m 213.6049,299 15.2584,-10.8965 30.3242,-20.5879 25.0742,-14.7519 22.6133,-9.8887 22.9414,-5.998 26.0586,-3.0801 16.1347,-0.5728"
     transform="translate(-127.33225,-158.97068)" />
  <path
     style="stroke:none"
     id="path62"
     clip-path="url(#clipPath2)"
     d="m 380.0047,232.9403 -12.1698,-4.5711 3.1755,4.8904 -2.8208,5.1033 z"
     transform="translate(-127.33225,-158.97068)" />
  <path
     style="fill:none;stroke-width:3;stroke-linecap:butt;stroke-miterlimit:1.45000005"
     id="path64"
     clip-path="url(#clipPath2)"
     d="m 358.7952,332 45.1742,43.0972"
     transform="translate(-127.33225,-158.97068)" />
  <path
     style="stroke:none"
     id="path66"
     clip-path="url(#clipPath2)"
     d="m 411.2048,382 -6.5389,-14.8763 -1.601,7.1107 -7.0275,1.9336 z"
     transform="translate(-127.33225,-158.97068)" />
  <path
     style="fill:none;stroke-linecap:butt;stroke-miterlimit:1.45000005;stroke-dasharray:6, 2"
     id="path68"
     clip-path="url(#clipPath2)"
     d="M 428.5,249 V 374"
     transform="translate(-127.33225,-158.97068)" />
  <path
     style="stroke:none"
     id="path70"
     clip-path="url(#clipPath2)"
     d="m 428.5,382 5,-12 -5,3 -5,-3 z"
     transform="translate(-127.33225,-158.97068)" />
  <path
     style="fill:none;stroke-linecap:butt;stroke-miterlimit:1.45000005;stroke-dasharray:6, 2"
     id="path72"
     clip-path="url(#clipPath2)"
     d="M 444.3042,382 566.162,254.7774"
     transform="translate(-127.33225,-158.97068)" />
  <path
     style="stroke:none"
     id="path74"
     clip-path="url(#clipPath2)"
     d="m 571.6958,249 -11.9114,5.2074 5.6859,1.2921 1.5357,5.6251 z"
     transform="translate(-127.33225,-158.97068)" />
  <path
     style="fill:none;stroke-linecap:butt;stroke-miterlimit:1.45000005;stroke-dasharray:6, 2"
     id="path76"
     clip-path="url(#clipPath2)"
     d="m 477,232.5 h 54"
     transform="translate(-127.33225,-158.97068)" />
  <path
     style="stroke:none"
     id="path78"
     clip-path="url(#clipPath2)"
     d="m 539,232.5 -12,-5 3,5 -3,5 z"
     transform="translate(-127.33225,-158.97068)" />
  <path
     style="fill:none;stroke-width:3;stroke-linecap:butt;stroke-miterlimit:1.45000005"
     id="path80"
     clip-path="url(#clipPath2)"
     d="M 444.3042,249 564.7786,374.7783"
     transform="translate(-127.33225,-158.97068)" />
  <path
     style="stroke:none"
     id="path82"
     clip-path="url(#clipPath2)"
     d="m 571.6958,382 -5.8622,-15.1558 -1.9196,7.0314 -7.1075,1.6151 z"
     transform="translate(-127.33225,-158.97068)" />
  <path
     style="fill:none;stroke-width:3;stroke-linecap:butt;stroke-miterlimit:1.45000005"
     id="path84"
     clip-path="url(#clipPath2)"
     d="m 477,398.5 h 52"
     transform="translate(-127.33225,-158.97068)" />
  <path
     style="stroke:none"
     id="path86"
     clip-path="url(#clipPath2)"
     d="m 539,398.5 -15,-6.25 3.75,6.25 -3.75,6.25 z"
     transform="translate(-127.33225,-158.97068)" />
  <path
     style="fill:none;stroke-linecap:butt;stroke-miterlimit:1.45000005"
     id="path88"
     clip-path="url(#clipPath2)"
     d="M 587.5,249 V 374"
     transform="translate(-127.33225,-158.97068)" />
  <path
     style="stroke:none"
     id="path90"
     clip-path="url(#clipPath2)"
     d="m 587.5,382 5,-12 -5,3 -5,-3 z"
     transform="translate(-127.33225,-158.97068)" />
  <path
     style="fill:none;stroke-linecap:butt;stroke-miterlimit:1.45000005;stroke-dasharray:6, 2"
     id="path92"
     clip-path="url(#clipPath2)"
     d="m 531.3872,413.7734 -18.2197,6.0464 -63.562,19.1138 -24.8368,5.9191 -20.7077,3.3451 -16.954,0.6592 -13.5758,-2.1382 -10.5728,-5.0475 -7.9452,-8.0683 -5.6931,-11.2008 -3.8162,-14.4452 -2.3148,-17.8011 -1.1886,-21.2687 -0.2708,-28.8876"
     transform="translate(-127.33225,-158.97068)" />
  <path
     style="stroke:none"
     id="path94"
     clip-path="url(#clipPath2)"
     d="m 538.98,411.2536 -12.964,-0.9658 4.4221,3.8005 -1.2724,5.6904 z"
     transform="translate(-127.33225,-158.97068)" />
  <path
     style="stroke:none"
     id="path96"
     clip-path="url(#clipPath2)"
     d="m 341.6547,332 -4.8873,12.0463 4.9716,-3.0467 5.0279,2.953 z"
     transform="translate(-127.33225,-158.97068)" />
  <path
     style="fill:none;stroke-width:3;stroke-linecap:butt;stroke-miterlimit:1.45000005"
     id="path98"
     clip-path="url(#clipPath2)"
     d="m 603.2048,249 40.696,42.7565"
     transform="translate(-127.33225,-158.97068)" />
  <path
     style="stroke:none"
     id="path100"
     clip-path="url(#clipPath2)"
     d="m 650.7952,299 -5.8144,-15.1742 -1.9418,7.0253 -7.1125,1.5927 z"
     transform="translate(-127.33225,-158.97068)" />
  <path
     style="fill:none;stroke-width:3;stroke-linecap:butt;stroke-miterlimit:1.45000005"
     id="path102"
     clip-path="url(#clipPath2)"
     d="m 603.2048,382 40.696,-42.7565"
     transform="translate(-127.33225,-158.97068)" />
  <path
     style="stroke:none"
     id="path104"
     clip-path="url(#clipPath2)"
     d="m 650.7952,332 -14.8687,6.5562 7.1125,1.5927 1.9418,7.0253 z"
     transform="translate(-127.33225,-158.97068)" />
  <path
     style="fill:none;stroke-linecap:butt;stroke-miterlimit:1.45000005"
     id="path106"
     clip-path="url(#clipPath2)"
     d="m 476.5254,216 30.5332,-10.4902 59.0352,-18.2598 23.0678,-5.552 19.2329,-3.0046 15.7466,-0.3357 12.6089,2.4548 9.8198,5.3669 7.3794,8.4007 5.2876,11.5559 3.5444,14.8328 2.15,18.2312 1.104,21.7512 0.256,30.0491"
     transform="translate(-127.33225,-158.97068)" />
  <path
     style="stroke:none"
     id="path108"
     clip-path="url(#clipPath2)"
     d="m 666.3594,299 4.8976,-12.0422 -4.9743,3.0425 -5.0254,-2.9572 z"
     transform="translate(-127.33225,-158.97068)" />
  <text
     xml:space="preserve"
     style="font-style:normal;font-weight:normal;line-height:0%;font-family:sans-serif;letter-spacing:0px;word-spacing:0px;fill:#000000;fill-opacity:1;stroke:none"
     x="10"
     y="91.40593"
     id="text3135"><tspan
       id="tspan3137"
       x="10"
       y="91.40593"
       style="font-size:18.86186028px;line-height:1.25;font-family:LatoLatin;-inkscape-font-specification:LatoLatin">To any chord</tspan></text>
  <path
     style="fill:none;stroke-linecap:butt;stroke-miterlimit:1.45000005"
     id="path88-8"
     clip-path="url(#clipPath2-9)"
     d="m 587.5,316.89411 v 17.88913"
     transform="matrix(-1,0,0,1,650.99806,-267.19009)" />
  <path
     style="stroke:none"
     id="path90-8"
     clip-path="url(#clipPath2-9)"
     d="m 587.5,342.78324 5,-12 -5,3 -5,-3 z"
     transform="matrix(-1,0,0,1,650.66774,-267.19009)" />
</svg>
